<svg width="1024" height="753" viewBox="0 0 1024 753" fill="none" xmlns="http://www.w3.org/2000/svg">
<g clip-path="url(#clip0_175_1901)">
<rect width="1024" height="753" fill="#121214"/>
<g opacity="0.2" filter="url(#filter0_f_175_1901)">
<ellipse cx="512.5" cy="7" rx="670.5" ry="350" fill="#B3A659"/>
</g>
<path d="M33.0349 243C34.5302 243 35.6622 243.63 36.4308 244.891C37.2134 246.138 37.6047 247.953 37.6047 250.336C37.6047 252.719 37.2134 254.541 36.4308 255.802C35.6622 257.063 34.5302 257.693 33.0349 257.693C31.5536 257.693 30.4216 257.063 29.639 255.802C28.8564 254.541 28.4651 252.719 28.4651 250.336C28.4651 247.967 28.8564 246.152 29.639 244.891C30.4216 243.63 31.5536 243 33.0349 243ZM29.9534 250.336C29.9534 252.026 30.1072 253.35 30.4146 254.306L35.0683 245.099C34.5791 244.448 33.9013 244.122 33.0349 244.122C32.0706 244.122 31.316 244.635 30.771 245.66C30.2259 246.672 29.9534 248.23 29.9534 250.336ZM33.0349 256.55C34.0131 256.55 34.7748 256.044 35.3198 255.033C35.8648 254.008 36.1373 252.442 36.1373 250.336C36.1373 248.549 35.9627 247.163 35.6133 246.18L30.9596 255.469C31.4627 256.19 32.1545 256.55 33.0349 256.55Z" fill="url(#paint0_linear_175_1901)" fill-opacity="0.6"/>
<path d="M34.2926 280.135H37.3741V281.236H29.3874V280.135H32.9511V268.455L29.5551 270.471L28.9682 269.536L33.1607 266.959H34.2926V280.135Z" fill="url(#paint1_linear_175_1901)" fill-opacity="0.6"/>
<path d="M33.0349 290.502C34.5302 290.502 35.6622 291.133 36.4308 292.393C37.2134 293.64 37.6047 295.455 37.6047 297.838C37.6047 300.221 37.2134 302.043 36.4308 303.304C35.6622 304.565 34.5302 305.195 33.0349 305.195C31.5536 305.195 30.4216 304.565 29.639 303.304C28.8564 302.043 28.4651 300.221 28.4651 297.838C28.4651 295.469 28.8564 293.654 29.639 292.393C30.4216 291.133 31.5536 290.502 33.0349 290.502ZM29.9534 297.838C29.9534 299.529 30.1072 300.852 30.4146 301.808L35.0683 292.601C34.5791 291.95 33.9013 291.624 33.0349 291.624C32.0706 291.624 31.316 292.137 30.771 293.162C30.2259 294.174 29.9534 295.732 29.9534 297.838ZM33.0349 304.052C34.0131 304.052 34.7748 303.546 35.3198 302.535C35.8648 301.51 36.1373 299.944 36.1373 297.838C36.1373 296.051 35.9627 294.665 35.6133 293.682L30.9596 302.971C31.4627 303.692 32.1545 304.052 33.0349 304.052Z" fill="url(#paint2_linear_175_1901)" fill-opacity="0.6"/>
<path d="M34.2926 327.637H37.3741V328.738H29.3874V327.637H32.9511V315.957L29.5551 317.973L28.9682 317.038L33.1607 314.461H34.2926V327.637Z" fill="url(#paint3_linear_175_1901)" fill-opacity="0.6"/>
<path d="M34.2926 351.388H37.3741V352.489H29.3874V351.388H32.9511V339.708L29.5551 341.724L28.9682 340.789L33.1607 338.212H34.2926V351.388Z" fill="url(#paint4_linear_175_1901)" fill-opacity="0.6"/>
<path d="M33.0349 361.755C34.5302 361.755 35.6622 362.386 36.4308 363.646C37.2134 364.893 37.6047 366.708 37.6047 369.091C37.6047 371.474 37.2134 373.296 36.4308 374.557C35.6622 375.818 34.5302 376.448 33.0349 376.448C31.5536 376.448 30.4216 375.818 29.639 374.557C28.8564 373.296 28.4651 371.474 28.4651 369.091C28.4651 366.722 28.8564 364.907 29.639 363.646C30.4216 362.386 31.5536 361.755 33.0349 361.755ZM29.9534 369.091C29.9534 370.782 30.1072 372.105 30.4146 373.061L35.0683 363.854C34.5791 363.203 33.9013 362.878 33.0349 362.878C32.0706 362.878 31.316 363.39 30.771 364.415C30.2259 365.427 29.9534 366.985 29.9534 369.091ZM33.0349 375.305C34.0131 375.305 34.7748 374.8 35.3198 373.788C35.8648 372.763 36.1373 371.197 36.1373 369.091C36.1373 367.304 35.9627 365.919 35.6133 364.935L30.9596 374.225C31.4627 374.945 32.1545 375.305 33.0349 375.305Z" fill="url(#paint5_linear_175_1901)" fill-opacity="0.6"/>
<path d="M34.2926 398.89H37.3741V399.992H29.3874V398.89H32.9511V387.21L29.5551 389.226L28.9682 388.291L33.1607 385.714H34.2926V398.89Z" fill="url(#paint6_linear_175_1901)" fill-opacity="0.6"/>
<path d="M33.0349 409.257C34.5302 409.257 35.6622 409.888 36.4308 411.149C37.2134 412.396 37.6047 414.211 37.6047 416.594C37.6047 418.977 37.2134 420.798 36.4308 422.059C35.6622 423.32 34.5302 423.95 33.0349 423.95C31.5536 423.95 30.4216 423.32 29.639 422.059C28.8564 420.798 28.4651 418.977 28.4651 416.594C28.4651 414.224 28.8564 412.409 29.639 411.149C30.4216 409.888 31.5536 409.257 33.0349 409.257ZM29.9534 416.594C29.9534 418.284 30.1072 419.607 30.4146 420.563L35.0683 411.356C34.5791 410.705 33.9013 410.38 33.0349 410.38C32.0706 410.38 31.316 410.892 30.771 411.918C30.2259 412.929 29.9534 414.488 29.9534 416.594ZM33.0349 422.807C34.0131 422.807 34.7748 422.302 35.3198 421.29C35.8648 420.265 36.1373 418.699 36.1373 416.594C36.1373 414.806 35.9627 413.421 35.6133 412.437L30.9596 421.727C31.4627 422.447 32.1545 422.807 33.0349 422.807Z" fill="url(#paint7_linear_175_1901)" fill-opacity="0.6"/>
<path d="M33.0349 433.008C34.5302 433.008 35.6622 433.639 36.4308 434.9C37.2134 436.147 37.6047 437.962 37.6047 440.345C37.6047 442.728 37.2134 444.549 36.4308 445.81C35.6622 447.071 34.5302 447.701 33.0349 447.701C31.5536 447.701 30.4216 447.071 29.639 445.81C28.8564 444.549 28.4651 442.728 28.4651 440.345C28.4651 437.975 28.8564 436.16 29.639 434.9C30.4216 433.639 31.5536 433.008 33.0349 433.008ZM29.9534 440.345C29.9534 442.035 30.1072 443.358 30.4146 444.314L35.0683 435.107C34.5791 434.456 33.9013 434.131 33.0349 434.131C32.0706 434.131 31.316 434.643 30.771 435.669C30.2259 436.68 29.9534 438.239 29.9534 440.345ZM33.0349 446.558C34.0131 446.558 34.7748 446.053 35.3198 445.041C35.8648 444.016 36.1373 442.451 36.1373 440.345C36.1373 438.557 35.9627 437.172 35.6133 436.188L30.9596 445.478C31.4627 446.198 32.1545 446.558 33.0349 446.558Z" fill="url(#paint8_linear_175_1901)" fill-opacity="0.6"/>
<path d="M34.2926 470.143H37.3741V471.245H29.3874V470.143H32.9511V458.464L29.5551 460.48L28.9682 459.544L33.1607 456.967H34.2926V470.143Z" fill="url(#paint9_linear_175_1901)" fill-opacity="0.6"/>
<path d="M33.0349 480.511C34.5302 480.511 35.6622 481.141 36.4308 482.402C37.2134 483.649 37.6047 485.464 37.6047 487.847C37.6047 490.23 37.2134 492.052 36.4308 493.312C35.6622 494.573 34.5302 495.204 33.0349 495.204C31.5536 495.204 30.4216 494.573 29.639 493.312C28.8564 492.052 28.4651 490.23 28.4651 487.847C28.4651 485.478 28.8564 483.663 29.639 482.402C30.4216 481.141 31.5536 480.511 33.0349 480.511ZM29.9534 487.847C29.9534 489.537 30.1072 490.86 30.4146 491.816L35.0683 482.61C34.5791 481.958 33.9013 481.633 33.0349 481.633C32.0706 481.633 31.316 482.145 30.771 483.171C30.2259 484.182 29.9534 485.741 29.9534 487.847ZM33.0349 494.061C34.0131 494.061 34.7748 493.555 35.3198 492.543C35.8648 491.518 36.1373 489.953 36.1373 487.847C36.1373 486.059 35.9627 484.674 35.6133 483.69L30.9596 492.98C31.4627 493.7 32.1545 494.061 33.0349 494.061Z" fill="url(#paint10_linear_175_1901)" fill-opacity="0.6"/>
<path d="M34.2926 517.645H37.3741V518.747H29.3874V517.645H32.9511V505.966L29.5551 507.982L28.9682 507.046L33.1607 504.469H34.2926V517.645Z" fill="url(#paint11_linear_175_1901)" fill-opacity="0.6"/>
<path d="M34.2926 541.396H37.3741V542.498H29.3874V541.396H32.9511V529.717L29.5551 531.733L28.9682 530.798L33.1607 528.221H34.2926V541.396Z" fill="url(#paint12_linear_175_1901)" fill-opacity="0.6"/>
<path d="M71.9651 290.502C73.4604 290.502 74.5924 291.133 75.361 292.393C76.1436 293.64 76.5349 295.455 76.5349 297.838C76.5349 300.221 76.1436 302.043 75.361 303.304C74.5924 304.565 73.4604 305.195 71.9651 305.195C70.4838 305.195 69.3518 304.565 68.5692 303.304C67.7866 302.043 67.3953 300.221 67.3953 297.838C67.3953 295.469 67.7866 293.654 68.5692 292.393C69.3518 291.133 70.4838 290.502 71.9651 290.502ZM68.8836 297.838C68.8836 299.529 69.0374 300.852 69.3448 301.808L73.9985 292.601C73.5093 291.95 72.8315 291.624 71.9651 291.624C71.0008 291.624 70.2462 292.137 69.7012 293.162C69.1561 294.174 68.8836 295.732 68.8836 297.838ZM71.9651 304.052C72.9433 304.052 73.705 303.546 74.25 302.535C74.795 301.51 75.0675 299.944 75.0675 297.838C75.0675 296.051 74.8928 294.665 74.5435 293.682L69.8898 302.971C70.3929 303.692 71.0847 304.052 71.9651 304.052Z" fill="url(#paint13_linear_175_1901)" fill-opacity="0.6"/>
<path d="M73.2228 327.637H76.3043V328.738H68.3176V327.637H71.8812V315.957L68.4853 317.973L67.8984 317.038L72.0909 314.461H73.2228V327.637Z" fill="url(#paint14_linear_175_1901)" fill-opacity="0.6"/>
<path d="M71.9651 338.004C73.4604 338.004 74.5924 338.635 75.361 339.895C76.1436 341.142 76.5349 342.957 76.5349 345.34C76.5349 347.723 76.1436 349.545 75.361 350.806C74.5924 352.067 73.4604 352.697 71.9651 352.697C70.4838 352.697 69.3518 352.067 68.5692 350.806C67.7866 349.545 67.3953 347.723 67.3953 345.34C67.3953 342.971 67.7866 341.156 68.5692 339.895C69.3518 338.635 70.4838 338.004 71.9651 338.004ZM68.8836 345.34C68.8836 347.031 69.0374 348.354 69.3448 349.31L73.9985 340.103C73.5093 339.452 72.8315 339.126 71.9651 339.126C71.0008 339.126 70.2462 339.639 69.7012 340.664C69.1561 341.676 68.8836 343.234 68.8836 345.34ZM71.9651 351.554C72.9433 351.554 73.705 351.049 74.25 350.037C74.795 349.012 75.0675 347.446 75.0675 345.34C75.0675 343.553 74.8928 342.168 74.5435 341.184L69.8898 350.474C70.3929 351.194 71.0847 351.554 71.9651 351.554Z" fill="url(#paint15_linear_175_1901)" fill-opacity="0.6"/>
<path d="M71.9651 361.755C73.4604 361.755 74.5924 362.386 75.361 363.646C76.1436 364.893 76.5349 366.708 76.5349 369.091C76.5349 371.474 76.1436 373.296 75.361 374.557C74.5924 375.818 73.4604 376.448 71.9651 376.448C70.4838 376.448 69.3518 375.818 68.5692 374.557C67.7866 373.296 67.3953 371.474 67.3953 369.091C67.3953 366.722 67.7866 364.907 68.5692 363.646C69.3518 362.386 70.4838 361.755 71.9651 361.755ZM68.8836 369.091C68.8836 370.782 69.0374 372.105 69.3448 373.061L73.9985 363.854C73.5093 363.203 72.8315 362.878 71.9651 362.878C71.0008 362.878 70.2462 363.39 69.7012 364.415C69.1561 365.427 68.8836 366.985 68.8836 369.091ZM71.9651 375.305C72.9433 375.305 73.705 374.8 74.25 373.788C74.795 372.763 75.0675 371.197 75.0675 369.091C75.0675 367.304 74.8928 365.919 74.5435 364.935L69.8898 374.225C70.3929 374.945 71.0847 375.305 71.9651 375.305Z" fill="url(#paint16_linear_175_1901)" fill-opacity="0.6"/>
<path d="M73.2228 398.89H76.3043V399.992H68.3176V398.89H71.8812V387.21L68.4853 389.226L67.8984 388.291L72.0909 385.714H73.2228V398.89Z" fill="url(#paint17_linear_175_1901)" fill-opacity="0.6"/>
<path d="M71.9651 409.257C73.4604 409.257 74.5924 409.888 75.361 411.149C76.1436 412.396 76.5349 414.211 76.5349 416.594C76.5349 418.977 76.1436 420.798 75.361 422.059C74.5924 423.32 73.4604 423.95 71.9651 423.95C70.4838 423.95 69.3518 423.32 68.5692 422.059C67.7866 420.798 67.3953 418.977 67.3953 416.594C67.3953 414.224 67.7866 412.409 68.5692 411.149C69.3518 409.888 70.4838 409.257 71.9651 409.257ZM68.8836 416.594C68.8836 418.284 69.0374 419.607 69.3448 420.563L73.9985 411.356C73.5093 410.705 72.8315 410.38 71.9651 410.38C71.0008 410.38 70.2462 410.892 69.7012 411.918C69.1561 412.929 68.8836 414.488 68.8836 416.594ZM71.9651 422.807C72.9433 422.807 73.705 422.302 74.25 421.29C74.795 420.265 75.0675 418.699 75.0675 416.594C75.0675 414.806 74.8928 413.421 74.5435 412.437L69.8898 421.727C70.3929 422.447 71.0847 422.807 71.9651 422.807Z" fill="url(#paint18_linear_175_1901)" fill-opacity="0.6"/>
<path d="M73.2228 446.392H76.3043V447.494H68.3176V446.392H71.8812V434.713L68.4853 436.728L67.8984 435.793L72.0909 433.216H73.2228V446.392Z" fill="url(#paint19_linear_175_1901)" fill-opacity="0.6"/>
<path d="M71.9651 456.76C73.4604 456.76 74.5924 457.39 75.361 458.651C76.1436 459.898 76.5349 461.713 76.5349 464.096C76.5349 466.479 76.1436 468.301 75.361 469.561C74.5924 470.822 73.4604 471.453 71.9651 471.453C70.4838 471.453 69.3518 470.822 68.5692 469.561C67.7866 468.301 67.3953 466.479 67.3953 464.096C67.3953 461.726 67.7866 459.911 68.5692 458.651C69.3518 457.39 70.4838 456.76 71.9651 456.76ZM68.8836 464.096C68.8836 465.786 69.0374 467.109 69.3448 468.065L73.9985 458.859C73.5093 458.207 72.8315 457.882 71.9651 457.882C71.0008 457.882 70.2462 458.394 69.7012 459.42C69.1561 460.431 68.8836 461.99 68.8836 464.096ZM71.9651 470.31C72.9433 470.31 73.705 469.804 74.25 468.792C74.795 467.767 75.0675 466.202 75.0675 464.096C75.0675 462.308 74.8928 460.923 74.5435 459.939L69.8898 469.229C70.3929 469.949 71.0847 470.31 71.9651 470.31Z" fill="url(#paint20_linear_175_1901)" fill-opacity="0.6"/>
<path d="M71.9651 480.511C73.4604 480.511 74.5924 481.141 75.361 482.402C76.1436 483.649 76.5349 485.464 76.5349 487.847C76.5349 490.23 76.1436 492.052 75.361 493.312C74.5924 494.573 73.4604 495.204 71.9651 495.204C70.4838 495.204 69.3518 494.573 68.5692 493.312C67.7866 492.052 67.3953 490.23 67.3953 487.847C67.3953 485.478 67.7866 483.663 68.5692 482.402C69.3518 481.141 70.4838 480.511 71.9651 480.511ZM68.8836 487.847C68.8836 489.537 69.0374 490.86 69.3448 491.816L73.9985 482.61C73.5093 481.958 72.8315 481.633 71.9651 481.633C71.0008 481.633 70.2462 482.145 69.7012 483.171C69.1561 484.182 68.8836 485.741 68.8836 487.847ZM71.9651 494.061C72.9433 494.061 73.705 493.555 74.25 492.543C74.795 491.518 75.0675 489.953 75.0675 487.847C75.0675 486.059 74.8928 484.674 74.5435 483.69L69.8898 492.98C70.3929 493.7 71.0847 494.061 71.9651 494.061Z" fill="url(#paint21_linear_175_1901)" fill-opacity="0.6"/>
<path d="M73.2228 517.645H76.3043V518.747H68.3176V517.645H71.8812V505.966L68.4853 507.982L67.8984 507.046L72.0909 504.469H73.2228V517.645Z" fill="url(#paint22_linear_175_1901)" fill-opacity="0.6"/>
<path d="M71.9651 528.013C73.4604 528.013 74.5924 528.643 75.361 529.904C76.1436 531.151 76.5349 532.966 76.5349 535.349C76.5349 537.732 76.1436 539.554 75.361 540.815C74.5924 542.075 73.4604 542.706 71.9651 542.706C70.4838 542.706 69.3518 542.075 68.5692 540.815C67.7866 539.554 67.3953 537.732 67.3953 535.349C67.3953 532.98 67.7866 531.165 68.5692 529.904C69.3518 528.643 70.4838 528.013 71.9651 528.013ZM68.8836 535.349C68.8836 537.039 69.0374 538.362 69.3448 539.318L73.9985 530.112C73.5093 529.461 72.8315 529.135 71.9651 529.135C71.0008 529.135 70.2462 529.648 69.7012 530.673C69.1561 531.684 68.8836 533.243 68.8836 535.349ZM71.9651 541.563C72.9433 541.563 73.705 541.057 74.25 540.046C74.795 539.02 75.0675 537.455 75.0675 535.349C75.0675 533.562 74.8928 532.176 74.5435 531.192L69.8898 540.482C70.3929 541.202 71.0847 541.563 71.9651 541.563Z" fill="url(#paint23_linear_175_1901)" fill-opacity="0.6"/>
<path d="M73.2228 565.147H76.3043V566.249H68.3176V565.147H71.8812V553.468L68.4853 555.484L67.8984 554.549L72.0909 551.972H73.2228V565.147Z" fill="url(#paint24_linear_175_1901)" fill-opacity="0.6"/>
<path d="M73.2228 588.899H76.3043V590H68.3176V588.899H71.8812V577.219L68.4853 579.235L67.8984 578.3L72.0909 575.723H73.2228V588.899Z" fill="url(#paint25_linear_175_1901)" fill-opacity="0.6"/>
<path d="M13.5698 314.253C15.0651 314.253 16.1971 314.884 16.9657 316.144C17.7483 317.391 18.1396 319.206 18.1396 321.589C18.1396 323.972 17.7483 325.794 16.9657 327.055C16.1971 328.316 15.0651 328.946 13.5698 328.946C12.0885 328.946 10.9565 328.316 10.1739 327.055C9.3913 325.794 9 323.972 9 321.589C9 319.22 9.3913 317.405 10.1739 316.144C10.9565 314.884 12.0885 314.253 13.5698 314.253ZM10.4883 321.589C10.4883 323.28 10.6421 324.603 10.9495 325.559L15.6032 316.352C15.114 315.701 14.4363 315.375 13.5698 315.375C12.6055 315.375 11.8509 315.888 11.3059 316.913C10.7608 317.925 10.4883 319.483 10.4883 321.589ZM13.5698 327.803C14.5481 327.803 15.3097 327.297 15.8547 326.286C16.3997 325.261 16.6722 323.695 16.6722 321.589C16.6722 319.802 16.4976 318.417 16.1482 317.433L11.4945 326.722C11.9976 327.443 12.6894 327.803 13.5698 327.803Z" fill="url(#paint26_linear_175_1901)" fill-opacity="0.6"/>
<path d="M13.5698 338.004C15.0651 338.004 16.1971 338.635 16.9657 339.895C17.7483 341.142 18.1396 342.957 18.1396 345.34C18.1396 347.723 17.7483 349.545 16.9657 350.806C16.1971 352.067 15.0651 352.697 13.5698 352.697C12.0885 352.697 10.9565 352.067 10.1739 350.806C9.3913 349.545 9 347.723 9 345.34C9 342.971 9.3913 341.156 10.1739 339.895C10.9565 338.635 12.0885 338.004 13.5698 338.004ZM10.4883 345.34C10.4883 347.031 10.6421 348.354 10.9495 349.31L15.6032 340.103C15.114 339.452 14.4363 339.126 13.5698 339.126C12.6055 339.126 11.8509 339.639 11.3059 340.664C10.7608 341.676 10.4883 343.234 10.4883 345.34ZM13.5698 351.554C14.5481 351.554 15.3097 351.049 15.8547 350.037C16.3997 349.012 16.6722 347.446 16.6722 345.34C16.6722 343.553 16.4976 342.168 16.1482 341.184L11.4945 350.474C11.9976 351.194 12.6894 351.554 13.5698 351.554Z" fill="url(#paint27_linear_175_1901)" fill-opacity="0.6"/>
<path d="M14.8276 375.139H17.909V376.24H9.92235V375.139H13.486V363.459L10.09 365.475L9.5031 364.54L13.6956 361.963H14.8276V375.139Z" fill="url(#paint28_linear_175_1901)" fill-opacity="0.6"/>
<path d="M13.5698 385.506C15.0651 385.506 16.1971 386.137 16.9657 387.398C17.7483 388.644 18.1396 390.459 18.1396 392.842C18.1396 395.225 17.7483 397.047 16.9657 398.308C16.1971 399.569 15.0651 400.199 13.5698 400.199C12.0885 400.199 10.9565 399.569 10.1739 398.308C9.3913 397.047 9 395.225 9 392.842C9 390.473 9.3913 388.658 10.1739 387.398C10.9565 386.137 12.0885 385.506 13.5698 385.506ZM10.4883 392.842C10.4883 394.533 10.6421 395.856 10.9495 396.812L15.6032 387.605C15.114 386.954 14.4363 386.629 13.5698 386.629C12.6055 386.629 11.8509 387.141 11.3059 388.166C10.7608 389.178 10.4883 390.737 10.4883 392.842ZM13.5698 399.056C14.5481 399.056 15.3097 398.551 15.8547 397.539C16.3997 396.514 16.6722 394.948 16.6722 392.842C16.6722 391.055 16.4976 389.67 16.1482 388.686L11.4945 397.976C11.9976 398.696 12.6894 399.056 13.5698 399.056Z" fill="url(#paint29_linear_175_1901)" fill-opacity="0.6"/>
<path d="M14.8276 422.641H17.909V423.743H9.92235V422.641H13.486V410.962L10.09 412.977L9.5031 412.042L13.6956 409.465H14.8276V422.641Z" fill="url(#paint30_linear_175_1901)" fill-opacity="0.6"/>
<path d="M14.8276 446.392H17.909V447.494H9.92235V446.392H13.486V434.713L10.09 436.728L9.5031 435.793L13.6956 433.216H14.8276V446.392Z" fill="url(#paint31_linear_175_1901)" fill-opacity="0.6"/>
<path d="M53.7577 280.135H56.8392V281.236H48.8525V280.135H52.4162V268.455L49.0202 270.471L48.4333 269.536L52.6258 266.959H53.7577V280.135Z" fill="url(#paint32_linear_175_1901)" fill-opacity="0.6"/>
<path d="M52.5 290.502C53.9953 290.502 55.1273 291.133 55.8959 292.393C56.6785 293.64 57.0698 295.455 57.0698 297.838C57.0698 300.221 56.6785 302.043 55.8959 303.304C55.1273 304.565 53.9953 305.195 52.5 305.195C51.0187 305.195 49.8867 304.565 49.1041 303.304C48.3215 302.043 47.9302 300.221 47.9302 297.838C47.9302 295.469 48.3215 293.654 49.1041 292.393C49.8867 291.133 51.0187 290.502 52.5 290.502ZM49.4185 297.838C49.4185 299.529 49.5723 300.852 49.8797 301.808L54.5334 292.601C54.0442 291.95 53.3664 291.624 52.5 291.624C51.5357 291.624 50.7811 292.137 50.2361 293.162C49.691 294.174 49.4185 295.732 49.4185 297.838ZM52.5 304.052C53.4782 304.052 54.2399 303.546 54.7849 302.535C55.3299 301.51 55.6024 299.944 55.6024 297.838C55.6024 296.051 55.4277 294.665 55.0784 293.682L50.4247 302.971C50.9278 303.692 51.6196 304.052 52.5 304.052Z" fill="url(#paint33_linear_175_1901)" fill-opacity="0.6"/>
<path d="M53.7577 327.637H56.8392V328.738H48.8525V327.637H52.4162V315.957L49.0202 317.973L48.4333 317.038L52.6258 314.461H53.7577V327.637Z" fill="url(#paint34_linear_175_1901)" fill-opacity="0.6"/>
<path d="M53.7577 351.388H56.8392V352.489H48.8525V351.388H52.4162V339.708L49.0202 341.724L48.4333 340.789L52.6258 338.212H53.7577V351.388Z" fill="url(#paint35_linear_175_1901)" fill-opacity="0.6"/>
<path d="M52.5 361.755C53.9953 361.755 55.1273 362.386 55.8959 363.646C56.6785 364.893 57.0698 366.708 57.0698 369.091C57.0698 371.474 56.6785 373.296 55.8959 374.557C55.1273 375.818 53.9953 376.448 52.5 376.448C51.0187 376.448 49.8867 375.818 49.1041 374.557C48.3215 373.296 47.9302 371.474 47.9302 369.091C47.9302 366.722 48.3215 364.907 49.1041 363.646C49.8867 362.386 51.0187 361.755 52.5 361.755ZM49.4185 369.091C49.4185 370.782 49.5723 372.105 49.8797 373.061L54.5334 363.854C54.0442 363.203 53.3664 362.878 52.5 362.878C51.5357 362.878 50.7811 363.39 50.2361 364.415C49.691 365.427 49.4185 366.985 49.4185 369.091ZM52.5 375.305C53.4782 375.305 54.2399 374.8 54.7849 373.788C55.3299 372.763 55.6024 371.197 55.6024 369.091C55.6024 367.304 55.4277 365.919 55.0784 364.935L50.4247 374.225C50.9278 374.945 51.6196 375.305 52.5 375.305Z" fill="url(#paint36_linear_175_1901)" fill-opacity="0.6"/>
<path d="M53.7577 398.89H56.8392V399.992H48.8525V398.89H52.4162V387.21L49.0202 389.226L48.4333 388.291L52.6258 385.714H53.7577V398.89Z" fill="url(#paint37_linear_175_1901)" fill-opacity="0.6"/>
<path d="M53.7577 422.641H56.8392V423.743H48.8525V422.641H52.4162V410.962L49.0202 412.977L48.4333 412.042L52.6258 409.465H53.7577V422.641Z" fill="url(#paint38_linear_175_1901)" fill-opacity="0.6"/>
<path d="M52.5 433.008C53.9953 433.008 55.1273 433.639 55.8959 434.9C56.6785 436.147 57.0698 437.962 57.0698 440.345C57.0698 442.728 56.6785 444.549 55.8959 445.81C55.1273 447.071 53.9953 447.701 52.5 447.701C51.0187 447.701 49.8867 447.071 49.1041 445.81C48.3215 444.549 47.9302 442.728 47.9302 440.345C47.9302 437.975 48.3215 436.16 49.1041 434.9C49.8867 433.639 51.0187 433.008 52.5 433.008ZM49.4185 440.345C49.4185 442.035 49.5723 443.358 49.8797 444.314L54.5334 435.107C54.0442 434.456 53.3664 434.131 52.5 434.131C51.5357 434.131 50.7811 434.643 50.2361 435.669C49.691 436.68 49.4185 438.239 49.4185 440.345ZM52.5 446.558C53.4782 446.558 54.2399 446.053 54.7849 445.041C55.3299 444.016 55.6024 442.451 55.6024 440.345C55.6024 438.557 55.4277 437.172 55.0784 436.188L50.4247 445.478C50.9278 446.198 51.6196 446.558 52.5 446.558Z" fill="url(#paint39_linear_175_1901)" fill-opacity="0.6"/>
<path d="M53.7577 470.143H56.8392V471.245H48.8525V470.143H52.4162V458.464L49.0202 460.48L48.4333 459.544L52.6258 456.967H53.7577V470.143Z" fill="url(#paint40_linear_175_1901)" fill-opacity="0.6"/>
<path d="M52.5 480.511C53.9953 480.511 55.1273 481.141 55.8959 482.402C56.6785 483.649 57.0698 485.464 57.0698 487.847C57.0698 490.23 56.6785 492.052 55.8959 493.312C55.1273 494.573 53.9953 495.204 52.5 495.204C51.0187 495.204 49.8867 494.573 49.1041 493.312C48.3215 492.052 47.9302 490.23 47.9302 487.847C47.9302 485.478 48.3215 483.663 49.1041 482.402C49.8867 481.141 51.0187 480.511 52.5 480.511ZM49.4185 487.847C49.4185 489.537 49.5723 490.86 49.8797 491.816L54.5334 482.61C54.0442 481.958 53.3664 481.633 52.5 481.633C51.5357 481.633 50.7811 482.145 50.2361 483.171C49.691 484.182 49.4185 485.741 49.4185 487.847ZM52.5 494.061C53.4782 494.061 54.2399 493.555 54.7849 492.543C55.3299 491.518 55.6024 489.953 55.6024 487.847C55.6024 486.059 55.4277 484.674 55.0784 483.69L50.4247 492.98C50.9278 493.7 51.6196 494.061 52.5 494.061Z" fill="url(#paint41_linear_175_1901)" fill-opacity="0.6"/>
<path d="M91.4302 266.751C92.9255 266.751 94.0575 267.381 94.8261 268.642C95.6087 269.889 96 271.704 96 274.087C96 276.47 95.6087 278.292 94.8261 279.553C94.0575 280.814 92.9255 281.444 91.4302 281.444C89.9489 281.444 88.8169 280.814 88.0343 279.553C87.2517 278.292 86.8604 276.47 86.8604 274.087C86.8604 271.718 87.2517 269.903 88.0343 268.642C88.8169 267.381 89.9489 266.751 91.4302 266.751ZM88.3487 274.087C88.3487 275.777 88.5024 277.101 88.8099 278.057L93.4636 268.85C92.9744 268.199 92.2966 267.873 91.4302 267.873C90.4659 267.873 89.7113 268.386 89.1663 269.411C88.6212 270.423 88.3487 271.981 88.3487 274.087ZM91.4302 280.301C92.4084 280.301 93.1701 279.795 93.7151 278.784C94.2601 277.759 94.5326 276.193 94.5326 274.087C94.5326 272.3 94.3579 270.914 94.0086 269.931L89.3549 279.22C89.858 279.941 90.5498 280.301 91.4302 280.301Z" fill="url(#paint42_linear_175_1901)" fill-opacity="0.6"/>
<path d="M92.6879 303.886H95.7694V304.987H87.7827V303.886H91.3463V292.206L87.9504 294.222L87.3635 293.287L91.556 290.71H92.6879V303.886Z" fill="url(#paint43_linear_175_1901)" fill-opacity="0.6"/>
<path d="M92.6879 327.637H95.7694V328.738H87.7827V327.637H91.3463V315.957L87.9504 317.973L87.3635 317.038L91.556 314.461H92.6879V327.637Z" fill="url(#paint44_linear_175_1901)" fill-opacity="0.6"/>
<path d="M91.4302 338.004C92.9255 338.004 94.0575 338.635 94.8261 339.895C95.6087 341.142 96 342.957 96 345.34C96 347.723 95.6087 349.545 94.8261 350.806C94.0575 352.067 92.9255 352.697 91.4302 352.697C89.9489 352.697 88.8169 352.067 88.0343 350.806C87.2517 349.545 86.8604 347.723 86.8604 345.34C86.8604 342.971 87.2517 341.156 88.0343 339.895C88.8169 338.635 89.9489 338.004 91.4302 338.004ZM88.3487 345.34C88.3487 347.031 88.5024 348.354 88.8099 349.31L93.4636 340.103C92.9744 339.452 92.2966 339.126 91.4302 339.126C90.4659 339.126 89.7113 339.639 89.1663 340.664C88.6212 341.676 88.3487 343.234 88.3487 345.34ZM91.4302 351.554C92.4084 351.554 93.1701 351.049 93.7151 350.037C94.2601 349.012 94.5326 347.446 94.5326 345.34C94.5326 343.553 94.3579 342.168 94.0086 341.184L89.3549 350.474C89.858 351.194 90.5498 351.554 91.4302 351.554Z" fill="url(#paint45_linear_175_1901)" fill-opacity="0.6"/>
<path d="M91.4302 361.755C92.9255 361.755 94.0575 362.386 94.8261 363.646C95.6087 364.893 96 366.708 96 369.091C96 371.474 95.6087 373.296 94.8261 374.557C94.0575 375.818 92.9255 376.448 91.4302 376.448C89.9489 376.448 88.8169 375.818 88.0343 374.557C87.2517 373.296 86.8604 371.474 86.8604 369.091C86.8604 366.722 87.2517 364.907 88.0343 363.646C88.8169 362.386 89.9489 361.755 91.4302 361.755ZM88.3487 369.091C88.3487 370.782 88.5024 372.105 88.8099 373.061L93.4636 363.854C92.9744 363.203 92.2966 362.878 91.4302 362.878C90.4659 362.878 89.7113 363.39 89.1663 364.415C88.6212 365.427 88.3487 366.985 88.3487 369.091ZM91.4302 375.305C92.4084 375.305 93.1701 374.8 93.7151 373.788C94.2601 372.763 94.5326 371.197 94.5326 369.091C94.5326 367.304 94.3579 365.919 94.0086 364.935L89.3549 374.225C89.858 374.945 90.5498 375.305 91.4302 375.305Z" fill="url(#paint46_linear_175_1901)" fill-opacity="0.6"/>
<g opacity="0.6">
<path d="M919.93 -57C921.356 -57 922.436 -56.395 923.17 -55.1851C923.916 -53.9885 924.29 -52.2468 924.29 -49.9599C924.29 -47.673 923.916 -45.9246 923.17 -44.7147C922.436 -43.5048 921.356 -42.8998 919.93 -42.8998C918.517 -42.8998 917.437 -43.5048 916.69 -44.7147C915.943 -45.9246 915.57 -47.673 915.57 -49.9599C915.57 -52.2335 915.943 -53.9752 916.69 -55.1851C917.437 -56.395 918.517 -57 919.93 -57ZM916.99 -49.9599C916.99 -48.3378 917.137 -47.068 917.43 -46.1506L921.87 -54.9857C921.403 -55.6106 920.756 -55.923 919.93 -55.923C919.01 -55.923 918.29 -55.4311 917.77 -54.4472C917.25 -53.4766 916.99 -51.9808 916.99 -49.9599ZM919.93 -43.9967C920.863 -43.9967 921.59 -44.482 922.11 -45.4526C922.63 -46.4365 922.89 -47.9389 922.89 -49.9599C922.89 -51.675 922.723 -53.0046 922.39 -53.9486L917.95 -45.0338C918.43 -44.3424 919.09 -43.9967 919.93 -43.9967Z" fill="url(#paint47_linear_175_1901)"/>
<path d="M921.13 -21.3635H924.07V-20.3064H916.45V-21.3635H919.85V-32.5718L916.61 -30.6373L916.05 -31.5347L920.05 -34.0078H921.13V-21.3635Z" fill="url(#paint48_linear_175_1901)"/>
<path d="M919.93 -11.4144C921.356 -11.4144 922.436 -10.8094 923.17 -9.59951C923.916 -8.40289 924.29 -6.66114 924.29 -4.37427C924.29 -2.08739 923.916 -0.338993 923.17 0.870926C922.436 2.08084 921.356 2.6858 919.93 2.6858C918.517 2.6858 917.437 2.08084 916.69 0.870926C915.943 -0.338993 915.57 -2.08739 915.57 -4.37427C915.57 -6.64785 915.943 -8.3896 916.69 -9.59951C917.437 -10.8094 918.517 -11.4144 919.93 -11.4144ZM916.99 -4.37427C916.99 -2.75218 917.137 -1.48243 917.43 -0.565022L921.87 -9.40008C921.403 -10.025 920.756 -10.3374 919.93 -10.3374C919.01 -10.3374 918.29 -9.84549 917.77 -8.8616C917.25 -7.89101 916.99 -6.39523 916.99 -4.37427ZM919.93 1.5889C920.863 1.5889 921.59 1.1036 922.11 0.133007C922.63 -0.850883 922.89 -2.35331 922.89 -4.37427C922.89 -6.08942 922.723 -7.41901 922.39 -8.36301L917.95 0.551826C918.43 1.24321 919.09 1.5889 919.93 1.5889Z" fill="url(#paint49_linear_175_1901)"/>
<path d="M921.13 24.2221H924.07V25.2792H916.45V24.2221H919.85V13.0138L916.61 14.9483L916.05 14.0509L920.05 11.5778H921.13V24.2221Z" fill="url(#paint50_linear_175_1901)"/>
<path d="M921.13 47.015H924.07V48.072H916.45V47.015H919.85V35.8066L916.61 37.7411L916.05 36.8437L920.05 34.3706H921.13V47.015Z" fill="url(#paint51_linear_175_1901)"/>
<path d="M919.93 56.964C921.356 56.964 922.436 57.569 923.17 58.7789C923.916 59.9755 924.29 61.7173 924.29 64.0041C924.29 66.291 923.916 68.0394 923.17 69.2493C922.436 70.4593 921.356 71.0642 919.93 71.0642C918.517 71.0642 917.437 70.4593 916.69 69.2493C915.943 68.0394 915.57 66.291 915.57 64.0041C915.57 61.7306 915.943 59.9888 916.69 58.7789C917.437 57.569 918.517 56.964 919.93 56.964ZM916.99 64.0041C916.99 65.6262 917.137 66.896 917.43 67.8134L921.87 58.9783C921.403 58.3534 920.756 58.041 919.93 58.041C919.01 58.041 918.29 58.5329 917.77 59.5168C917.25 60.4874 916.99 61.9832 916.99 64.0041ZM919.93 69.9673C920.863 69.9673 921.59 69.482 922.11 68.5114C922.63 67.5275 922.89 66.0251 922.89 64.0041C922.89 62.289 922.723 60.9594 922.39 60.0154L917.95 68.9302C918.43 69.6216 919.09 69.9673 919.93 69.9673Z" fill="url(#paint52_linear_175_1901)"/>
<path d="M921.13 92.6006H924.07V93.6576H916.45V92.6006H919.85V81.3922L916.61 83.3267L916.05 82.4293L920.05 79.9563H921.13V92.6006Z" fill="url(#paint53_linear_175_1901)"/>
<path d="M919.93 102.55C921.356 102.55 922.436 103.155 923.17 104.365C923.916 105.561 924.29 107.303 924.29 109.59C924.29 111.877 923.916 113.625 923.17 114.835C922.436 116.045 921.356 116.65 919.93 116.65C918.517 116.65 917.437 116.045 916.69 114.835C915.943 113.625 915.57 111.877 915.57 109.59C915.57 107.316 915.943 105.574 916.69 104.365C917.437 103.155 918.517 102.55 919.93 102.55ZM916.99 109.59C916.99 111.212 917.137 112.482 917.43 113.399L921.87 104.564C921.403 103.939 920.756 103.627 919.93 103.627C919.01 103.627 918.29 104.119 917.77 105.102C917.25 106.073 916.99 107.569 916.99 109.59ZM919.93 115.553C920.863 115.553 921.59 115.068 922.11 114.097C922.63 113.113 922.89 111.611 922.89 109.59C922.89 107.875 922.723 106.545 922.39 105.601L917.95 114.516C918.43 115.207 919.09 115.553 919.93 115.553Z" fill="url(#paint54_linear_175_1901)"/>
<path d="M919.93 125.342C921.356 125.342 922.436 125.947 923.17 127.157C923.916 128.354 924.29 130.096 924.29 132.383C924.29 134.669 923.916 136.418 923.17 137.628C922.436 138.838 921.356 139.443 919.93 139.443C918.517 139.443 917.437 138.838 916.69 137.628C915.943 136.418 915.57 134.669 915.57 132.383C915.57 130.109 915.943 128.367 916.69 127.157C917.437 125.947 918.517 125.342 919.93 125.342ZM916.99 132.383C916.99 134.005 917.137 135.274 917.43 136.192L921.87 127.357C921.403 126.732 920.756 126.419 919.93 126.419C919.01 126.419 918.29 126.911 917.77 127.895C917.25 128.866 916.99 130.362 916.99 132.383ZM919.93 138.346C920.863 138.346 921.59 137.86 922.11 136.89C922.63 135.906 922.89 134.404 922.89 132.383C922.89 130.667 922.723 129.338 922.39 128.394L917.95 137.309C918.43 138 919.09 138.346 919.93 138.346Z" fill="url(#paint55_linear_175_1901)"/>
<path d="M921.13 160.979H924.07V162.036H916.45V160.979H919.85V149.771L916.61 151.705L916.05 150.808L920.05 148.335H921.13V160.979Z" fill="url(#paint56_linear_175_1901)"/>
<path d="M919.93 170.928C921.356 170.928 922.436 171.533 923.17 172.743C923.916 173.94 924.29 175.681 924.29 177.968C924.29 180.255 923.916 182.003 923.17 183.213C922.436 184.423 921.356 185.028 919.93 185.028C918.517 185.028 917.437 184.423 916.69 183.213C915.943 182.003 915.57 180.255 915.57 177.968C915.57 175.695 915.943 173.953 916.69 172.743C917.437 171.533 918.517 170.928 919.93 170.928ZM916.99 177.968C916.99 179.59 917.137 180.86 917.43 181.777L921.87 172.942C921.403 172.317 920.756 172.005 919.93 172.005C919.01 172.005 918.29 172.497 917.77 173.481C917.25 174.451 916.99 175.947 916.99 177.968ZM919.93 183.931C920.863 183.931 921.59 183.446 922.11 182.475C922.63 181.492 922.89 179.989 922.89 177.968C922.89 176.253 922.723 174.923 922.39 173.979L917.95 182.894C918.43 183.586 919.09 183.931 919.93 183.931Z" fill="url(#paint57_linear_175_1901)"/>
<path d="M921.13 206.565H924.07V207.622H916.45V206.565H919.85V195.356L916.61 197.291L916.05 196.393L920.05 193.92H921.13V206.565Z" fill="url(#paint58_linear_175_1901)"/>
<path d="M921.13 229.357H924.07V230.414H916.45V229.357H919.85V218.149L916.61 220.084L916.05 219.186L920.05 216.713H921.13V229.357Z" fill="url(#paint59_linear_175_1901)"/>
<path d="M957.07 -11.4144C958.497 -11.4144 959.577 -10.8094 960.31 -9.59951C961.057 -8.40289 961.43 -6.66114 961.43 -4.37427C961.43 -2.08739 961.057 -0.338993 960.31 0.870926C959.577 2.08084 958.497 2.6858 957.07 2.6858C955.657 2.6858 954.577 2.08084 953.83 0.870926C953.084 -0.338993 952.71 -2.08739 952.71 -4.37427C952.71 -6.64785 953.084 -8.3896 953.83 -9.59951C954.577 -10.8094 955.657 -11.4144 957.07 -11.4144ZM954.13 -4.37427C954.13 -2.75218 954.277 -1.48243 954.57 -0.565022L959.01 -9.40008C958.543 -10.025 957.897 -10.3374 957.07 -10.3374C956.15 -10.3374 955.43 -9.84549 954.91 -8.8616C954.39 -7.89101 954.13 -6.39523 954.13 -4.37427ZM957.07 1.5889C958.003 1.5889 958.73 1.1036 959.25 0.133007C959.77 -0.850883 960.03 -2.35331 960.03 -4.37427C960.03 -6.08942 959.863 -7.41901 959.53 -8.36301L955.09 0.551826C955.57 1.24321 956.23 1.5889 957.07 1.5889Z" fill="url(#paint60_linear_175_1901)"/>
<path d="M958.27 24.2221H961.21V25.2792H953.59V24.2221H956.99V13.0138L953.75 14.9483L953.19 14.0509L957.19 11.5778H958.27V24.2221Z" fill="url(#paint61_linear_175_1901)"/>
<path d="M957.07 34.1712C958.497 34.1712 959.577 34.7762 960.31 35.9861C961.057 37.1827 961.43 38.9245 961.43 41.2113C961.43 43.4982 961.057 45.2466 960.31 46.4565C959.577 47.6665 958.497 48.2714 957.07 48.2714C955.657 48.2714 954.577 47.6665 953.83 46.4565C953.084 45.2466 952.71 43.4982 952.71 41.2113C952.71 38.9378 953.084 37.196 953.83 35.9861C954.577 34.7762 955.657 34.1712 957.07 34.1712ZM954.13 41.2113C954.13 42.8334 954.277 44.1032 954.57 45.0206L959.01 36.1855C958.543 35.5606 957.897 35.2482 957.07 35.2482C956.15 35.2482 955.43 35.7401 954.91 36.724C954.39 37.6946 954.13 39.1904 954.13 41.2113ZM957.07 47.1745C958.003 47.1745 958.73 46.6892 959.25 45.7186C959.77 44.7347 960.03 43.2323 960.03 41.2113C960.03 39.4962 959.863 38.1666 959.53 37.2226L955.09 46.1374C955.57 46.8288 956.23 47.1745 957.07 47.1745Z" fill="url(#paint62_linear_175_1901)"/>
<path d="M957.07 56.964C958.497 56.964 959.577 57.569 960.31 58.7789C961.057 59.9755 961.43 61.7173 961.43 64.0041C961.43 66.291 961.057 68.0394 960.31 69.2493C959.577 70.4593 958.497 71.0642 957.07 71.0642C955.657 71.0642 954.577 70.4593 953.83 69.2493C953.084 68.0394 952.71 66.291 952.71 64.0041C952.71 61.7306 953.084 59.9888 953.83 58.7789C954.577 57.569 955.657 56.964 957.07 56.964ZM954.13 64.0041C954.13 65.6262 954.277 66.896 954.57 67.8134L959.01 58.9783C958.543 58.3534 957.897 58.041 957.07 58.041C956.15 58.041 955.43 58.5329 954.91 59.5168C954.39 60.4874 954.13 61.9832 954.13 64.0041ZM957.07 69.9673C958.003 69.9673 958.73 69.482 959.25 68.5114C959.77 67.5275 960.03 66.0251 960.03 64.0041C960.03 62.289 959.863 60.9594 959.53 60.0154L955.09 68.9302C955.57 69.6216 956.23 69.9673 957.07 69.9673Z" fill="url(#paint63_linear_175_1901)"/>
<path d="M958.27 92.6006H961.21V93.6576H953.59V92.6006H956.99V81.3922L953.75 83.3267L953.19 82.4293L957.19 79.9563H958.27V92.6006Z" fill="url(#paint64_linear_175_1901)"/>
<path d="M957.07 102.55C958.497 102.55 959.577 103.155 960.31 104.365C961.057 105.561 961.43 107.303 961.43 109.59C961.43 111.877 961.057 113.625 960.31 114.835C959.577 116.045 958.497 116.65 957.07 116.65C955.657 116.65 954.577 116.045 953.83 114.835C953.084 113.625 952.71 111.877 952.71 109.59C952.71 107.316 953.084 105.574 953.83 104.365C954.577 103.155 955.657 102.55 957.07 102.55ZM954.13 109.59C954.13 111.212 954.277 112.482 954.57 113.399L959.01 104.564C958.543 103.939 957.897 103.627 957.07 103.627C956.15 103.627 955.43 104.119 954.91 105.102C954.39 106.073 954.13 107.569 954.13 109.59ZM957.07 115.553C958.003 115.553 958.73 115.068 959.25 114.097C959.77 113.113 960.03 111.611 960.03 109.59C960.03 107.875 959.863 106.545 959.53 105.601L955.09 114.516C955.57 115.207 956.23 115.553 957.07 115.553Z" fill="url(#paint65_linear_175_1901)"/>
<path d="M958.27 138.186H961.21V139.243H953.59V138.186H956.99V126.978L953.75 128.912L953.19 128.015L957.19 125.542H958.27V138.186Z" fill="url(#paint66_linear_175_1901)"/>
<path d="M957.07 148.135C958.497 148.135 959.577 148.74 960.31 149.95C961.057 151.147 961.43 152.888 961.43 155.175C961.43 157.462 961.057 159.211 960.31 160.421C959.577 161.63 958.497 162.235 957.07 162.235C955.657 162.235 954.577 161.63 953.83 160.421C953.084 159.211 952.71 157.462 952.71 155.175C952.71 152.902 953.084 151.16 953.83 149.95C954.577 148.74 955.657 148.135 957.07 148.135ZM954.13 155.175C954.13 156.797 954.277 158.067 954.57 158.985L959.01 150.15C958.543 149.525 957.897 149.212 957.07 149.212C956.15 149.212 955.43 149.704 954.91 150.688C954.39 151.659 954.13 153.154 954.13 155.175ZM957.07 161.139C958.003 161.139 958.73 160.653 959.25 159.683C959.77 158.699 960.03 157.196 960.03 155.175C960.03 153.46 959.863 152.131 959.53 151.187L955.09 160.101C955.57 160.793 956.23 161.139 957.07 161.139Z" fill="url(#paint67_linear_175_1901)"/>
<path d="M957.07 170.928C958.497 170.928 959.577 171.533 960.31 172.743C961.057 173.94 961.43 175.681 961.43 177.968C961.43 180.255 961.057 182.003 960.31 183.213C959.577 184.423 958.497 185.028 957.07 185.028C955.657 185.028 954.577 184.423 953.83 183.213C953.084 182.003 952.71 180.255 952.71 177.968C952.71 175.695 953.084 173.953 953.83 172.743C954.577 171.533 955.657 170.928 957.07 170.928ZM954.13 177.968C954.13 179.59 954.277 180.86 954.57 181.777L959.01 172.942C958.543 172.317 957.897 172.005 957.07 172.005C956.15 172.005 955.43 172.497 954.91 173.481C954.39 174.451 954.13 175.947 954.13 177.968ZM957.07 183.931C958.003 183.931 958.73 183.446 959.25 182.475C959.77 181.492 960.03 179.989 960.03 177.968C960.03 176.253 959.863 174.923 959.53 173.979L955.09 182.894C955.57 183.586 956.23 183.931 957.07 183.931Z" fill="url(#paint68_linear_175_1901)"/>
<path d="M958.27 206.565H961.21V207.622H953.59V206.565H956.99V195.356L953.75 197.291L953.19 196.393L957.19 193.92H958.27V206.565Z" fill="url(#paint69_linear_175_1901)"/>
<path d="M957.07 216.514C958.497 216.514 959.577 217.119 960.31 218.329C961.057 219.525 961.43 221.267 961.43 223.554C961.43 225.841 961.057 227.589 960.31 228.799C959.577 230.009 958.497 230.614 957.07 230.614C955.657 230.614 954.577 230.009 953.83 228.799C953.084 227.589 952.71 225.841 952.71 223.554C952.71 221.28 953.084 219.538 953.83 218.329C954.577 217.119 955.657 216.514 957.07 216.514ZM954.13 223.554C954.13 225.176 954.277 226.446 954.57 227.363L959.01 218.528C958.543 217.903 957.897 217.591 957.07 217.591C956.15 217.591 955.43 218.083 954.91 219.066C954.39 220.037 954.13 221.533 954.13 223.554ZM957.07 229.517C958.003 229.517 958.73 229.032 959.25 228.061C959.77 227.077 960.03 225.575 960.03 223.554C960.03 221.839 959.863 220.509 959.53 219.565L955.09 228.48C955.57 229.171 956.23 229.517 957.07 229.517Z" fill="url(#paint70_linear_175_1901)"/>
<path d="M958.27 252.15H961.21V253.207H953.59V252.15H956.99V240.942L953.75 242.876L953.19 241.979L957.19 239.506H958.27V252.15Z" fill="url(#paint71_linear_175_1901)"/>
<path d="M958.27 274.943H961.21V276H953.59V274.943H956.99V263.735L953.75 265.669L953.19 264.772L957.19 262.299H958.27V274.943Z" fill="url(#paint72_linear_175_1901)"/>
<path d="M901.36 11.3784C902.786 11.3784 903.866 11.9834 904.599 13.1933C905.346 14.3899 905.719 16.1317 905.719 18.4185C905.719 20.7054 905.346 22.4538 904.599 23.6637C903.866 24.8736 902.786 25.4786 901.36 25.4786C899.946 25.4786 898.867 24.8736 898.12 23.6637C897.373 22.4538 897 20.7054 897 18.4185C897 16.145 897.373 14.4032 898.12 13.1933C898.867 11.9834 899.946 11.3784 901.36 11.3784ZM898.42 18.4185C898.42 20.0406 898.567 21.3104 898.86 22.2278L903.3 13.3927C902.833 12.7678 902.186 12.4554 901.36 12.4554C900.44 12.4554 899.72 12.9473 899.2 13.9312C898.68 14.9018 898.42 16.3976 898.42 18.4185ZM901.36 24.3817C902.293 24.3817 903.02 23.8964 903.54 22.9258C904.06 21.9419 904.319 20.4395 904.319 18.4185C904.319 16.7034 904.153 15.3738 903.82 14.4298L899.38 23.3446C899.86 24.036 900.52 24.3817 901.36 24.3817Z" fill="url(#paint73_linear_175_1901)"/>
<path d="M901.36 34.1712C902.786 34.1712 903.866 34.7762 904.599 35.9861C905.346 37.1827 905.719 38.9245 905.719 41.2113C905.719 43.4982 905.346 45.2466 904.599 46.4565C903.866 47.6665 902.786 48.2714 901.36 48.2714C899.946 48.2714 898.867 47.6665 898.12 46.4565C897.373 45.2466 897 43.4982 897 41.2113C897 38.9378 897.373 37.196 898.12 35.9861C898.867 34.7762 899.946 34.1712 901.36 34.1712ZM898.42 41.2113C898.42 42.8334 898.567 44.1032 898.86 45.0206L903.3 36.1855C902.833 35.5606 902.186 35.2482 901.36 35.2482C900.44 35.2482 899.72 35.7401 899.2 36.724C898.68 37.6946 898.42 39.1904 898.42 41.2113ZM901.36 47.1745C902.293 47.1745 903.02 46.6892 903.54 45.7186C904.06 44.7347 904.319 43.2323 904.319 41.2113C904.319 39.4962 904.153 38.1666 903.82 37.2226L899.38 46.1374C899.86 46.8288 900.52 47.1745 901.36 47.1745Z" fill="url(#paint74_linear_175_1901)"/>
<path d="M902.56 69.8078H905.499V70.8648H897.88V69.8078H901.28V58.5994L898.04 60.5339L897.48 59.6365L901.48 57.1635H902.56V69.8078Z" fill="url(#paint75_linear_175_1901)"/>
<path d="M901.36 79.7568C902.786 79.7568 903.866 80.3618 904.599 81.5717C905.346 82.7683 905.719 84.5101 905.719 86.797C905.719 89.0838 905.346 90.8322 904.599 92.0421C903.866 93.2521 902.786 93.857 901.36 93.857C899.946 93.857 898.867 93.2521 898.12 92.0421C897.373 90.8322 897 89.0838 897 86.797C897 84.5234 897.373 82.7816 898.12 81.5717C898.867 80.3618 899.946 79.7568 901.36 79.7568ZM898.42 86.797C898.42 88.419 898.567 89.6888 898.86 90.6062L903.3 81.7711C902.833 81.1462 902.186 80.8338 901.36 80.8338C900.44 80.8338 899.72 81.3257 899.2 82.3096C898.68 83.2802 898.42 84.776 898.42 86.797ZM901.36 92.7601C902.293 92.7601 903.02 92.2748 903.54 91.3042C904.06 90.3203 904.319 88.8179 904.319 86.797C904.319 85.0818 904.153 83.7522 903.82 82.8082L899.38 91.723C899.86 92.4144 900.52 92.7601 901.36 92.7601Z" fill="url(#paint76_linear_175_1901)"/>
<path d="M902.56 115.393H905.499V116.45H897.88V115.393H901.28V104.185L898.04 106.12L897.48 105.222L901.48 102.749H902.56V115.393Z" fill="url(#paint77_linear_175_1901)"/>
<path d="M902.56 138.186H905.499V139.243H897.88V138.186H901.28V126.978L898.04 128.912L897.48 128.015L901.48 125.542H902.56V138.186Z" fill="url(#paint78_linear_175_1901)"/>
<path d="M939.7 -21.3635H942.64V-20.3064H935.02V-21.3635H938.42V-32.5718L935.18 -30.6373L934.62 -31.5347L938.62 -34.0078H939.7V-21.3635Z" fill="url(#paint79_linear_175_1901)"/>
<path d="M938.5 -11.4144C939.927 -11.4144 941.006 -10.8094 941.74 -9.59951C942.486 -8.40289 942.86 -6.66114 942.86 -4.37427C942.86 -2.08739 942.486 -0.338993 941.74 0.870926C941.006 2.08084 939.927 2.6858 938.5 2.6858C937.087 2.6858 936.007 2.08084 935.26 0.870926C934.514 -0.338993 934.14 -2.08739 934.14 -4.37427C934.14 -6.64785 934.514 -8.3896 935.26 -9.59951C936.007 -10.8094 937.087 -11.4144 938.5 -11.4144ZM935.56 -4.37427C935.56 -2.75218 935.707 -1.48243 936 -0.565022L940.44 -9.40008C939.973 -10.025 939.327 -10.3374 938.5 -10.3374C937.58 -10.3374 936.86 -9.84549 936.34 -8.8616C935.82 -7.89101 935.56 -6.39523 935.56 -4.37427ZM938.5 1.5889C939.433 1.5889 940.16 1.1036 940.68 0.133007C941.2 -0.850883 941.46 -2.35331 941.46 -4.37427C941.46 -6.08942 941.293 -7.41901 940.96 -8.36301L936.52 0.551826C937 1.24321 937.66 1.5889 938.5 1.5889Z" fill="url(#paint80_linear_175_1901)"/>
<path d="M939.7 24.2221H942.64V25.2792H935.02V24.2221H938.42V13.0138L935.18 14.9483L934.62 14.0509L938.62 11.5778H939.7V24.2221Z" fill="url(#paint81_linear_175_1901)"/>
<path d="M939.7 47.015H942.64V48.072H935.02V47.015H938.42V35.8066L935.18 37.7411L934.62 36.8437L938.62 34.3706H939.7V47.015Z" fill="url(#paint82_linear_175_1901)"/>
<path d="M938.5 56.964C939.927 56.964 941.006 57.569 941.74 58.7789C942.486 59.9755 942.86 61.7173 942.86 64.0041C942.86 66.291 942.486 68.0394 941.74 69.2493C941.006 70.4593 939.927 71.0642 938.5 71.0642C937.087 71.0642 936.007 70.4593 935.26 69.2493C934.514 68.0394 934.14 66.291 934.14 64.0041C934.14 61.7306 934.514 59.9888 935.26 58.7789C936.007 57.569 937.087 56.964 938.5 56.964ZM935.56 64.0041C935.56 65.6262 935.707 66.896 936 67.8134L940.44 58.9783C939.973 58.3534 939.327 58.041 938.5 58.041C937.58 58.041 936.86 58.5329 936.34 59.5168C935.82 60.4874 935.56 61.9832 935.56 64.0041ZM938.5 69.9673C939.433 69.9673 940.16 69.482 940.68 68.5114C941.2 67.5275 941.46 66.0251 941.46 64.0041C941.46 62.289 941.293 60.9594 940.96 60.0154L936.52 68.9302C937 69.6216 937.66 69.9673 938.5 69.9673Z" fill="url(#paint83_linear_175_1901)"/>
<path d="M939.7 92.6006H942.64V93.6576H935.02V92.6006H938.42V81.3922L935.18 83.3267L934.62 82.4293L938.62 79.9563H939.7V92.6006Z" fill="url(#paint84_linear_175_1901)"/>
<path d="M939.7 115.393H942.64V116.45H935.02V115.393H938.42V104.185L935.18 106.12L934.62 105.222L938.62 102.749H939.7V115.393Z" fill="url(#paint85_linear_175_1901)"/>
<path d="M938.5 125.342C939.927 125.342 941.006 125.947 941.74 127.157C942.486 128.354 942.86 130.096 942.86 132.383C942.86 134.669 942.486 136.418 941.74 137.628C941.006 138.838 939.927 139.443 938.5 139.443C937.087 139.443 936.007 138.838 935.26 137.628C934.514 136.418 934.14 134.669 934.14 132.383C934.14 130.109 934.514 128.367 935.26 127.157C936.007 125.947 937.087 125.342 938.5 125.342ZM935.56 132.383C935.56 134.005 935.707 135.274 936 136.192L940.44 127.357C939.973 126.732 939.327 126.419 938.5 126.419C937.58 126.419 936.86 126.911 936.34 127.895C935.82 128.866 935.56 130.362 935.56 132.383ZM938.5 138.346C939.433 138.346 940.16 137.86 940.68 136.89C941.2 135.906 941.46 134.404 941.46 132.383C941.46 130.667 941.293 129.338 940.96 128.394L936.52 137.309C937 138 937.66 138.346 938.5 138.346Z" fill="url(#paint86_linear_175_1901)"/>
<path d="M939.7 160.979H942.64V162.036H935.02V160.979H938.42V149.771L935.18 151.705L934.62 150.808L938.62 148.335H939.7V160.979Z" fill="url(#paint87_linear_175_1901)"/>
<path d="M938.5 170.928C939.927 170.928 941.006 171.533 941.74 172.743C942.486 173.94 942.86 175.681 942.86 177.968C942.86 180.255 942.486 182.003 941.74 183.213C941.006 184.423 939.927 185.028 938.5 185.028C937.087 185.028 936.007 184.423 935.26 183.213C934.514 182.003 934.14 180.255 934.14 177.968C934.14 175.695 934.514 173.953 935.26 172.743C936.007 171.533 937.087 170.928 938.5 170.928ZM935.56 177.968C935.56 179.59 935.707 180.86 936 181.777L940.44 172.942C939.973 172.317 939.327 172.005 938.5 172.005C937.58 172.005 936.86 172.497 936.34 173.481C935.82 174.451 935.56 175.947 935.56 177.968ZM938.5 183.931C939.433 183.931 940.16 183.446 940.68 182.475C941.2 181.492 941.46 179.989 941.46 177.968C941.46 176.253 941.293 174.923 940.96 173.979L936.52 182.894C937 183.586 937.66 183.931 938.5 183.931Z" fill="url(#paint88_linear_175_1901)"/>
<path d="M975.64 -34.2072C977.067 -34.2072 978.147 -33.6022 978.88 -32.3923C979.627 -31.1957 980 -29.454 980 -27.1671C980 -24.8802 979.627 -23.1318 978.88 -21.9219C978.147 -20.712 977.067 -20.107 975.64 -20.107C974.227 -20.107 973.147 -20.712 972.401 -21.9219C971.654 -23.1318 971.281 -24.8802 971.281 -27.1671C971.281 -29.4407 971.654 -31.1824 972.401 -32.3923C973.147 -33.6022 974.227 -34.2072 975.64 -34.2072ZM972.701 -27.1671C972.701 -25.545 972.847 -24.2752 973.14 -23.3578L977.58 -32.1929C977.114 -32.8178 976.467 -33.1302 975.64 -33.1302C974.72 -33.1302 974 -32.6383 973.48 -31.6544C972.96 -30.6838 972.701 -29.188 972.701 -27.1671ZM975.64 -21.2039C976.574 -21.2039 977.3 -21.6892 977.82 -22.6598C978.34 -23.6437 978.6 -25.1461 978.6 -27.1671C978.6 -28.8822 978.433 -30.2118 978.1 -31.1558L973.66 -22.241C974.14 -21.5496 974.8 -21.2039 975.64 -21.2039Z" fill="url(#paint89_linear_175_1901)"/>
<path d="M976.84 1.42934H979.78V2.48637H972.161V1.42934H975.56V-9.77901L972.321 -7.84447L971.761 -8.74194L975.76 -11.215H976.84V1.42934Z" fill="url(#paint90_linear_175_1901)"/>
<path d="M976.84 24.2221H979.78V25.2792H972.161V24.2221H975.56V13.0138L972.321 14.9483L971.761 14.0509L975.76 11.5778H976.84V24.2221Z" fill="url(#paint91_linear_175_1901)"/>
<path d="M975.64 34.1712C977.067 34.1712 978.147 34.7762 978.88 35.9861C979.627 37.1827 980 38.9245 980 41.2113C980 43.4982 979.627 45.2466 978.88 46.4565C978.147 47.6665 977.067 48.2714 975.64 48.2714C974.227 48.2714 973.147 47.6665 972.401 46.4565C971.654 45.2466 971.281 43.4982 971.281 41.2113C971.281 38.9378 971.654 37.196 972.401 35.9861C973.147 34.7762 974.227 34.1712 975.64 34.1712ZM972.701 41.2113C972.701 42.8334 972.847 44.1032 973.14 45.0206L977.58 36.1855C977.114 35.5606 976.467 35.2482 975.64 35.2482C974.72 35.2482 974 35.7401 973.48 36.724C972.96 37.6946 972.701 39.1904 972.701 41.2113ZM975.64 47.1745C976.574 47.1745 977.3 46.6892 977.82 45.7186C978.34 44.7347 978.6 43.2323 978.6 41.2113C978.6 39.4962 978.433 38.1666 978.1 37.2226L973.66 46.1374C974.14 46.8288 974.8 47.1745 975.64 47.1745Z" fill="url(#paint92_linear_175_1901)"/>
<path d="M975.64 56.964C977.067 56.964 978.147 57.569 978.88 58.7789C979.627 59.9755 980 61.7173 980 64.0041C980 66.291 979.627 68.0394 978.88 69.2493C978.147 70.4593 977.067 71.0642 975.64 71.0642C974.227 71.0642 973.147 70.4593 972.401 69.2493C971.654 68.0394 971.281 66.291 971.281 64.0041C971.281 61.7306 971.654 59.9888 972.401 58.7789C973.147 57.569 974.227 56.964 975.64 56.964ZM972.701 64.0041C972.701 65.6262 972.847 66.896 973.14 67.8134L977.58 58.9783C977.114 58.3534 976.467 58.041 975.64 58.041C974.72 58.041 974 58.5329 973.48 59.5168C972.96 60.4874 972.701 61.9832 972.701 64.0041ZM975.64 69.9673C976.574 69.9673 977.3 69.482 977.82 68.5114C978.34 67.5275 978.6 66.0251 978.6 64.0041C978.6 62.289 978.433 60.9594 978.1 60.0154L973.66 68.9302C974.14 69.6216 974.8 69.9673 975.64 69.9673Z" fill="url(#paint93_linear_175_1901)"/>
</g>
</g>
<defs>
<filter id="filter0_f_175_1901" x="-558.19" y="-743.19" width="2141.38" height="1500.38" filterUnits="userSpaceOnUse" color-interpolation-filters="sRGB">
<feFlood flood-opacity="0" result="BackgroundImageFix"/>
<feBlend mode="normal" in="SourceGraphic" in2="BackgroundImageFix" result="shape"/>
<feGaussianBlur stdDeviation="200.095" result="effect1_foregroundBlur_175_1901"/>
</filter>
<linearGradient id="paint0_linear_175_1901" x1="52.5" y1="243" x2="52.5" y2="554.381" gradientUnits="userSpaceOnUse">
<stop stop-color="#F7DD43"/>
<stop offset="1" stop-color="#F7DD43" stop-opacity="0"/>
</linearGradient>
<linearGradient id="paint1_linear_175_1901" x1="52.5" y1="243" x2="52.5" y2="554.381" gradientUnits="userSpaceOnUse">
<stop stop-color="#F7DD43"/>
<stop offset="1" stop-color="#F7DD43" stop-opacity="0"/>
</linearGradient>
<linearGradient id="paint2_linear_175_1901" x1="52.5" y1="243" x2="52.5" y2="554.381" gradientUnits="userSpaceOnUse">
<stop stop-color="#F7DD43"/>
<stop offset="1" stop-color="#F7DD43" stop-opacity="0"/>
</linearGradient>
<linearGradient id="paint3_linear_175_1901" x1="52.5" y1="243" x2="52.5" y2="554.381" gradientUnits="userSpaceOnUse">
<stop stop-color="#F7DD43"/>
<stop offset="1" stop-color="#F7DD43" stop-opacity="0"/>
</linearGradient>
<linearGradient id="paint4_linear_175_1901" x1="52.5" y1="243" x2="52.5" y2="554.381" gradientUnits="userSpaceOnUse">
<stop stop-color="#F7DD43"/>
<stop offset="1" stop-color="#F7DD43" stop-opacity="0"/>
</linearGradient>
<linearGradient id="paint5_linear_175_1901" x1="52.5" y1="243" x2="52.5" y2="554.381" gradientUnits="userSpaceOnUse">
<stop stop-color="#F7DD43"/>
<stop offset="1" stop-color="#F7DD43" stop-opacity="0"/>
</linearGradient>
<linearGradient id="paint6_linear_175_1901" x1="52.5" y1="243" x2="52.5" y2="554.381" gradientUnits="userSpaceOnUse">
<stop stop-color="#F7DD43"/>
<stop offset="1" stop-color="#F7DD43" stop-opacity="0"/>
</linearGradient>
<linearGradient id="paint7_linear_175_1901" x1="52.5" y1="243" x2="52.5" y2="554.381" gradientUnits="userSpaceOnUse">
<stop stop-color="#F7DD43"/>
<stop offset="1" stop-color="#F7DD43" stop-opacity="0"/>
</linearGradient>
<linearGradient id="paint8_linear_175_1901" x1="52.5" y1="243" x2="52.5" y2="554.381" gradientUnits="userSpaceOnUse">
<stop stop-color="#F7DD43"/>
<stop offset="1" stop-color="#F7DD43" stop-opacity="0"/>
</linearGradient>
<linearGradient id="paint9_linear_175_1901" x1="52.5" y1="243" x2="52.5" y2="554.381" gradientUnits="userSpaceOnUse">
<stop stop-color="#F7DD43"/>
<stop offset="1" stop-color="#F7DD43" stop-opacity="0"/>
</linearGradient>
<linearGradient id="paint10_linear_175_1901" x1="52.5" y1="243" x2="52.5" y2="554.381" gradientUnits="userSpaceOnUse">
<stop stop-color="#F7DD43"/>
<stop offset="1" stop-color="#F7DD43" stop-opacity="0"/>
</linearGradient>
<linearGradient id="paint11_linear_175_1901" x1="52.5" y1="243" x2="52.5" y2="554.381" gradientUnits="userSpaceOnUse">
<stop stop-color="#F7DD43"/>
<stop offset="1" stop-color="#F7DD43" stop-opacity="0"/>
</linearGradient>
<linearGradient id="paint12_linear_175_1901" x1="52.5" y1="243" x2="52.5" y2="554.381" gradientUnits="userSpaceOnUse">
<stop stop-color="#F7DD43"/>
<stop offset="1" stop-color="#F7DD43" stop-opacity="0"/>
</linearGradient>
<linearGradient id="paint13_linear_175_1901" x1="52.5" y1="243" x2="52.5" y2="554.381" gradientUnits="userSpaceOnUse">
<stop stop-color="#F7DD43"/>
<stop offset="1" stop-color="#F7DD43" stop-opacity="0"/>
</linearGradient>
<linearGradient id="paint14_linear_175_1901" x1="52.5" y1="243" x2="52.5" y2="554.381" gradientUnits="userSpaceOnUse">
<stop stop-color="#F7DD43"/>
<stop offset="1" stop-color="#F7DD43" stop-opacity="0"/>
</linearGradient>
<linearGradient id="paint15_linear_175_1901" x1="52.5" y1="243" x2="52.5" y2="554.381" gradientUnits="userSpaceOnUse">
<stop stop-color="#F7DD43"/>
<stop offset="1" stop-color="#F7DD43" stop-opacity="0"/>
</linearGradient>
<linearGradient id="paint16_linear_175_1901" x1="52.5" y1="243" x2="52.5" y2="554.381" gradientUnits="userSpaceOnUse">
<stop stop-color="#F7DD43"/>
<stop offset="1" stop-color="#F7DD43" stop-opacity="0"/>
</linearGradient>
<linearGradient id="paint17_linear_175_1901" x1="52.5" y1="243" x2="52.5" y2="554.381" gradientUnits="userSpaceOnUse">
<stop stop-color="#F7DD43"/>
<stop offset="1" stop-color="#F7DD43" stop-opacity="0"/>
</linearGradient>
<linearGradient id="paint18_linear_175_1901" x1="52.5" y1="243" x2="52.5" y2="554.381" gradientUnits="userSpaceOnUse">
<stop stop-color="#F7DD43"/>
<stop offset="1" stop-color="#F7DD43" stop-opacity="0"/>
</linearGradient>
<linearGradient id="paint19_linear_175_1901" x1="52.5" y1="243" x2="52.5" y2="554.381" gradientUnits="userSpaceOnUse">
<stop stop-color="#F7DD43"/>
<stop offset="1" stop-color="#F7DD43" stop-opacity="0"/>
</linearGradient>
<linearGradient id="paint20_linear_175_1901" x1="52.5" y1="243" x2="52.5" y2="554.381" gradientUnits="userSpaceOnUse">
<stop stop-color="#F7DD43"/>
<stop offset="1" stop-color="#F7DD43" stop-opacity="0"/>
</linearGradient>
<linearGradient id="paint21_linear_175_1901" x1="52.5" y1="243" x2="52.5" y2="554.381" gradientUnits="userSpaceOnUse">
<stop stop-color="#F7DD43"/>
<stop offset="1" stop-color="#F7DD43" stop-opacity="0"/>
</linearGradient>
<linearGradient id="paint22_linear_175_1901" x1="52.5" y1="243" x2="52.5" y2="554.381" gradientUnits="userSpaceOnUse">
<stop stop-color="#F7DD43"/>
<stop offset="1" stop-color="#F7DD43" stop-opacity="0"/>
</linearGradient>
<linearGradient id="paint23_linear_175_1901" x1="52.5" y1="243" x2="52.5" y2="554.381" gradientUnits="userSpaceOnUse">
<stop stop-color="#F7DD43"/>
<stop offset="1" stop-color="#F7DD43" stop-opacity="0"/>
</linearGradient>
<linearGradient id="paint24_linear_175_1901" x1="52.5" y1="243" x2="52.5" y2="554.381" gradientUnits="userSpaceOnUse">
<stop stop-color="#F7DD43"/>
<stop offset="1" stop-color="#F7DD43" stop-opacity="0"/>
</linearGradient>
<linearGradient id="paint25_linear_175_1901" x1="52.5" y1="243" x2="52.5" y2="554.381" gradientUnits="userSpaceOnUse">
<stop stop-color="#F7DD43"/>
<stop offset="1" stop-color="#F7DD43" stop-opacity="0"/>
</linearGradient>
<linearGradient id="paint26_linear_175_1901" x1="52.5" y1="243" x2="52.5" y2="554.381" gradientUnits="userSpaceOnUse">
<stop stop-color="#F7DD43"/>
<stop offset="1" stop-color="#F7DD43" stop-opacity="0"/>
</linearGradient>
<linearGradient id="paint27_linear_175_1901" x1="52.5" y1="243" x2="52.5" y2="554.381" gradientUnits="userSpaceOnUse">
<stop stop-color="#F7DD43"/>
<stop offset="1" stop-color="#F7DD43" stop-opacity="0"/>
</linearGradient>
<linearGradient id="paint28_linear_175_1901" x1="52.5" y1="243" x2="52.5" y2="554.381" gradientUnits="userSpaceOnUse">
<stop stop-color="#F7DD43"/>
<stop offset="1" stop-color="#F7DD43" stop-opacity="0"/>
</linearGradient>
<linearGradient id="paint29_linear_175_1901" x1="52.5" y1="243" x2="52.5" y2="554.381" gradientUnits="userSpaceOnUse">
<stop stop-color="#F7DD43"/>
<stop offset="1" stop-color="#F7DD43" stop-opacity="0"/>
</linearGradient>
<linearGradient id="paint30_linear_175_1901" x1="52.5" y1="243" x2="52.5" y2="554.381" gradientUnits="userSpaceOnUse">
<stop stop-color="#F7DD43"/>
<stop offset="1" stop-color="#F7DD43" stop-opacity="0"/>
</linearGradient>
<linearGradient id="paint31_linear_175_1901" x1="52.5" y1="243" x2="52.5" y2="554.381" gradientUnits="userSpaceOnUse">
<stop stop-color="#F7DD43"/>
<stop offset="1" stop-color="#F7DD43" stop-opacity="0"/>
</linearGradient>
<linearGradient id="paint32_linear_175_1901" x1="52.5" y1="243" x2="52.5" y2="554.381" gradientUnits="userSpaceOnUse">
<stop stop-color="#F7DD43"/>
<stop offset="1" stop-color="#F7DD43" stop-opacity="0"/>
</linearGradient>
<linearGradient id="paint33_linear_175_1901" x1="52.5" y1="243" x2="52.5" y2="554.381" gradientUnits="userSpaceOnUse">
<stop stop-color="#F7DD43"/>
<stop offset="1" stop-color="#F7DD43" stop-opacity="0"/>
</linearGradient>
<linearGradient id="paint34_linear_175_1901" x1="52.5" y1="243" x2="52.5" y2="554.381" gradientUnits="userSpaceOnUse">
<stop stop-color="#F7DD43"/>
<stop offset="1" stop-color="#F7DD43" stop-opacity="0"/>
</linearGradient>
<linearGradient id="paint35_linear_175_1901" x1="52.5" y1="243" x2="52.5" y2="554.381" gradientUnits="userSpaceOnUse">
<stop stop-color="#F7DD43"/>
<stop offset="1" stop-color="#F7DD43" stop-opacity="0"/>
</linearGradient>
<linearGradient id="paint36_linear_175_1901" x1="52.5" y1="243" x2="52.5" y2="554.381" gradientUnits="userSpaceOnUse">
<stop stop-color="#F7DD43"/>
<stop offset="1" stop-color="#F7DD43" stop-opacity="0"/>
</linearGradient>
<linearGradient id="paint37_linear_175_1901" x1="52.5" y1="243" x2="52.5" y2="554.381" gradientUnits="userSpaceOnUse">
<stop stop-color="#F7DD43"/>
<stop offset="1" stop-color="#F7DD43" stop-opacity="0"/>
</linearGradient>
<linearGradient id="paint38_linear_175_1901" x1="52.5" y1="243" x2="52.5" y2="554.381" gradientUnits="userSpaceOnUse">
<stop stop-color="#F7DD43"/>
<stop offset="1" stop-color="#F7DD43" stop-opacity="0"/>
</linearGradient>
<linearGradient id="paint39_linear_175_1901" x1="52.5" y1="243" x2="52.5" y2="554.381" gradientUnits="userSpaceOnUse">
<stop stop-color="#F7DD43"/>
<stop offset="1" stop-color="#F7DD43" stop-opacity="0"/>
</linearGradient>
<linearGradient id="paint40_linear_175_1901" x1="52.5" y1="243" x2="52.5" y2="554.381" gradientUnits="userSpaceOnUse">
<stop stop-color="#F7DD43"/>
<stop offset="1" stop-color="#F7DD43" stop-opacity="0"/>
</linearGradient>
<linearGradient id="paint41_linear_175_1901" x1="52.5" y1="243" x2="52.5" y2="554.381" gradientUnits="userSpaceOnUse">
<stop stop-color="#F7DD43"/>
<stop offset="1" stop-color="#F7DD43" stop-opacity="0"/>
</linearGradient>
<linearGradient id="paint42_linear_175_1901" x1="52.5" y1="243" x2="52.5" y2="554.381" gradientUnits="userSpaceOnUse">
<stop stop-color="#F7DD43"/>
<stop offset="1" stop-color="#F7DD43" stop-opacity="0"/>
</linearGradient>
<linearGradient id="paint43_linear_175_1901" x1="52.5" y1="243" x2="52.5" y2="554.381" gradientUnits="userSpaceOnUse">
<stop stop-color="#F7DD43"/>
<stop offset="1" stop-color="#F7DD43" stop-opacity="0"/>
</linearGradient>
<linearGradient id="paint44_linear_175_1901" x1="52.5" y1="243" x2="52.5" y2="554.381" gradientUnits="userSpaceOnUse">
<stop stop-color="#F7DD43"/>
<stop offset="1" stop-color="#F7DD43" stop-opacity="0"/>
</linearGradient>
<linearGradient id="paint45_linear_175_1901" x1="52.5" y1="243" x2="52.5" y2="554.381" gradientUnits="userSpaceOnUse">
<stop stop-color="#F7DD43"/>
<stop offset="1" stop-color="#F7DD43" stop-opacity="0"/>
</linearGradient>
<linearGradient id="paint46_linear_175_1901" x1="52.5" y1="243" x2="52.5" y2="554.381" gradientUnits="userSpaceOnUse">
<stop stop-color="#F7DD43"/>
<stop offset="1" stop-color="#F7DD43" stop-opacity="0"/>
</linearGradient>
<linearGradient id="paint47_linear_175_1901" x1="938.5" y1="-57" x2="938.5" y2="241.818" gradientUnits="userSpaceOnUse">
<stop stop-color="#F7DD43"/>
<stop offset="1" stop-color="#F7DD43" stop-opacity="0"/>
</linearGradient>
<linearGradient id="paint48_linear_175_1901" x1="938.5" y1="-57" x2="938.5" y2="241.818" gradientUnits="userSpaceOnUse">
<stop stop-color="#F7DD43"/>
<stop offset="1" stop-color="#F7DD43" stop-opacity="0"/>
</linearGradient>
<linearGradient id="paint49_linear_175_1901" x1="938.5" y1="-57" x2="938.5" y2="241.818" gradientUnits="userSpaceOnUse">
<stop stop-color="#F7DD43"/>
<stop offset="1" stop-color="#F7DD43" stop-opacity="0"/>
</linearGradient>
<linearGradient id="paint50_linear_175_1901" x1="938.5" y1="-57" x2="938.5" y2="241.818" gradientUnits="userSpaceOnUse">
<stop stop-color="#F7DD43"/>
<stop offset="1" stop-color="#F7DD43" stop-opacity="0"/>
</linearGradient>
<linearGradient id="paint51_linear_175_1901" x1="938.5" y1="-57" x2="938.5" y2="241.818" gradientUnits="userSpaceOnUse">
<stop stop-color="#F7DD43"/>
<stop offset="1" stop-color="#F7DD43" stop-opacity="0"/>
</linearGradient>
<linearGradient id="paint52_linear_175_1901" x1="938.5" y1="-57" x2="938.5" y2="241.818" gradientUnits="userSpaceOnUse">
<stop stop-color="#F7DD43"/>
<stop offset="1" stop-color="#F7DD43" stop-opacity="0"/>
</linearGradient>
<linearGradient id="paint53_linear_175_1901" x1="938.5" y1="-57" x2="938.5" y2="241.818" gradientUnits="userSpaceOnUse">
<stop stop-color="#F7DD43"/>
<stop offset="1" stop-color="#F7DD43" stop-opacity="0"/>
</linearGradient>
<linearGradient id="paint54_linear_175_1901" x1="938.5" y1="-57" x2="938.5" y2="241.818" gradientUnits="userSpaceOnUse">
<stop stop-color="#F7DD43"/>
<stop offset="1" stop-color="#F7DD43" stop-opacity="0"/>
</linearGradient>
<linearGradient id="paint55_linear_175_1901" x1="938.5" y1="-57" x2="938.5" y2="241.818" gradientUnits="userSpaceOnUse">
<stop stop-color="#F7DD43"/>
<stop offset="1" stop-color="#F7DD43" stop-opacity="0"/>
</linearGradient>
<linearGradient id="paint56_linear_175_1901" x1="938.5" y1="-57" x2="938.5" y2="241.818" gradientUnits="userSpaceOnUse">
<stop stop-color="#F7DD43"/>
<stop offset="1" stop-color="#F7DD43" stop-opacity="0"/>
</linearGradient>
<linearGradient id="paint57_linear_175_1901" x1="938.5" y1="-57" x2="938.5" y2="241.818" gradientUnits="userSpaceOnUse">
<stop stop-color="#F7DD43"/>
<stop offset="1" stop-color="#F7DD43" stop-opacity="0"/>
</linearGradient>
<linearGradient id="paint58_linear_175_1901" x1="938.5" y1="-57" x2="938.5" y2="241.818" gradientUnits="userSpaceOnUse">
<stop stop-color="#F7DD43"/>
<stop offset="1" stop-color="#F7DD43" stop-opacity="0"/>
</linearGradient>
<linearGradient id="paint59_linear_175_1901" x1="938.5" y1="-57" x2="938.5" y2="241.818" gradientUnits="userSpaceOnUse">
<stop stop-color="#F7DD43"/>
<stop offset="1" stop-color="#F7DD43" stop-opacity="0"/>
</linearGradient>
<linearGradient id="paint60_linear_175_1901" x1="938.5" y1="-57" x2="938.5" y2="241.818" gradientUnits="userSpaceOnUse">
<stop stop-color="#F7DD43"/>
<stop offset="1" stop-color="#F7DD43" stop-opacity="0"/>
</linearGradient>
<linearGradient id="paint61_linear_175_1901" x1="938.5" y1="-57" x2="938.5" y2="241.818" gradientUnits="userSpaceOnUse">
<stop stop-color="#F7DD43"/>
<stop offset="1" stop-color="#F7DD43" stop-opacity="0"/>
</linearGradient>
<linearGradient id="paint62_linear_175_1901" x1="938.5" y1="-57" x2="938.5" y2="241.818" gradientUnits="userSpaceOnUse">
<stop stop-color="#F7DD43"/>
<stop offset="1" stop-color="#F7DD43" stop-opacity="0"/>
</linearGradient>
<linearGradient id="paint63_linear_175_1901" x1="938.5" y1="-57" x2="938.5" y2="241.818" gradientUnits="userSpaceOnUse">
<stop stop-color="#F7DD43"/>
<stop offset="1" stop-color="#F7DD43" stop-opacity="0"/>
</linearGradient>
<linearGradient id="paint64_linear_175_1901" x1="938.5" y1="-57" x2="938.5" y2="241.818" gradientUnits="userSpaceOnUse">
<stop stop-color="#F7DD43"/>
<stop offset="1" stop-color="#F7DD43" stop-opacity="0"/>
</linearGradient>
<linearGradient id="paint65_linear_175_1901" x1="938.5" y1="-57" x2="938.5" y2="241.818" gradientUnits="userSpaceOnUse">
<stop stop-color="#F7DD43"/>
<stop offset="1" stop-color="#F7DD43" stop-opacity="0"/>
</linearGradient>
<linearGradient id="paint66_linear_175_1901" x1="938.5" y1="-57" x2="938.5" y2="241.818" gradientUnits="userSpaceOnUse">
<stop stop-color="#F7DD43"/>
<stop offset="1" stop-color="#F7DD43" stop-opacity="0"/>
</linearGradient>
<linearGradient id="paint67_linear_175_1901" x1="938.5" y1="-57" x2="938.5" y2="241.818" gradientUnits="userSpaceOnUse">
<stop stop-color="#F7DD43"/>
<stop offset="1" stop-color="#F7DD43" stop-opacity="0"/>
</linearGradient>
<linearGradient id="paint68_linear_175_1901" x1="938.5" y1="-57" x2="938.5" y2="241.818" gradientUnits="userSpaceOnUse">
<stop stop-color="#F7DD43"/>
<stop offset="1" stop-color="#F7DD43" stop-opacity="0"/>
</linearGradient>
<linearGradient id="paint69_linear_175_1901" x1="938.5" y1="-57" x2="938.5" y2="241.818" gradientUnits="userSpaceOnUse">
<stop stop-color="#F7DD43"/>
<stop offset="1" stop-color="#F7DD43" stop-opacity="0"/>
</linearGradient>
<linearGradient id="paint70_linear_175_1901" x1="938.5" y1="-57" x2="938.5" y2="241.818" gradientUnits="userSpaceOnUse">
<stop stop-color="#F7DD43"/>
<stop offset="1" stop-color="#F7DD43" stop-opacity="0"/>
</linearGradient>
<linearGradient id="paint71_linear_175_1901" x1="938.5" y1="-57" x2="938.5" y2="241.818" gradientUnits="userSpaceOnUse">
<stop stop-color="#F7DD43"/>
<stop offset="1" stop-color="#F7DD43" stop-opacity="0"/>
</linearGradient>
<linearGradient id="paint72_linear_175_1901" x1="938.5" y1="-57" x2="938.5" y2="241.818" gradientUnits="userSpaceOnUse">
<stop stop-color="#F7DD43"/>
<stop offset="1" stop-color="#F7DD43" stop-opacity="0"/>
</linearGradient>
<linearGradient id="paint73_linear_175_1901" x1="938.5" y1="-57" x2="938.5" y2="241.818" gradientUnits="userSpaceOnUse">
<stop stop-color="#F7DD43"/>
<stop offset="1" stop-color="#F7DD43" stop-opacity="0"/>
</linearGradient>
<linearGradient id="paint74_linear_175_1901" x1="938.5" y1="-57" x2="938.5" y2="241.818" gradientUnits="userSpaceOnUse">
<stop stop-color="#F7DD43"/>
<stop offset="1" stop-color="#F7DD43" stop-opacity="0"/>
</linearGradient>
<linearGradient id="paint75_linear_175_1901" x1="938.5" y1="-57" x2="938.5" y2="241.818" gradientUnits="userSpaceOnUse">
<stop stop-color="#F7DD43"/>
<stop offset="1" stop-color="#F7DD43" stop-opacity="0"/>
</linearGradient>
<linearGradient id="paint76_linear_175_1901" x1="938.5" y1="-57" x2="938.5" y2="241.818" gradientUnits="userSpaceOnUse">
<stop stop-color="#F7DD43"/>
<stop offset="1" stop-color="#F7DD43" stop-opacity="0"/>
</linearGradient>
<linearGradient id="paint77_linear_175_1901" x1="938.5" y1="-57" x2="938.5" y2="241.818" gradientUnits="userSpaceOnUse">
<stop stop-color="#F7DD43"/>
<stop offset="1" stop-color="#F7DD43" stop-opacity="0"/>
</linearGradient>
<linearGradient id="paint78_linear_175_1901" x1="938.5" y1="-57" x2="938.5" y2="241.818" gradientUnits="userSpaceOnUse">
<stop stop-color="#F7DD43"/>
<stop offset="1" stop-color="#F7DD43" stop-opacity="0"/>
</linearGradient>
<linearGradient id="paint79_linear_175_1901" x1="938.5" y1="-57" x2="938.5" y2="241.818" gradientUnits="userSpaceOnUse">
<stop stop-color="#F7DD43"/>
<stop offset="1" stop-color="#F7DD43" stop-opacity="0"/>
</linearGradient>
<linearGradient id="paint80_linear_175_1901" x1="938.5" y1="-57" x2="938.5" y2="241.818" gradientUnits="userSpaceOnUse">
<stop stop-color="#F7DD43"/>
<stop offset="1" stop-color="#F7DD43" stop-opacity="0"/>
</linearGradient>
<linearGradient id="paint81_linear_175_1901" x1="938.5" y1="-57" x2="938.5" y2="241.818" gradientUnits="userSpaceOnUse">
<stop stop-color="#F7DD43"/>
<stop offset="1" stop-color="#F7DD43" stop-opacity="0"/>
</linearGradient>
<linearGradient id="paint82_linear_175_1901" x1="938.5" y1="-57" x2="938.5" y2="241.818" gradientUnits="userSpaceOnUse">
<stop stop-color="#F7DD43"/>
<stop offset="1" stop-color="#F7DD43" stop-opacity="0"/>
</linearGradient>
<linearGradient id="paint83_linear_175_1901" x1="938.5" y1="-57" x2="938.5" y2="241.818" gradientUnits="userSpaceOnUse">
<stop stop-color="#F7DD43"/>
<stop offset="1" stop-color="#F7DD43" stop-opacity="0"/>
</linearGradient>
<linearGradient id="paint84_linear_175_1901" x1="938.5" y1="-57" x2="938.5" y2="241.818" gradientUnits="userSpaceOnUse">
<stop stop-color="#F7DD43"/>
<stop offset="1" stop-color="#F7DD43" stop-opacity="0"/>
</linearGradient>
<linearGradient id="paint85_linear_175_1901" x1="938.5" y1="-57" x2="938.5" y2="241.818" gradientUnits="userSpaceOnUse">
<stop stop-color="#F7DD43"/>
<stop offset="1" stop-color="#F7DD43" stop-opacity="0"/>
</linearGradient>
<linearGradient id="paint86_linear_175_1901" x1="938.5" y1="-57" x2="938.5" y2="241.818" gradientUnits="userSpaceOnUse">
<stop stop-color="#F7DD43"/>
<stop offset="1" stop-color="#F7DD43" stop-opacity="0"/>
</linearGradient>
<linearGradient id="paint87_linear_175_1901" x1="938.5" y1="-57" x2="938.5" y2="241.818" gradientUnits="userSpaceOnUse">
<stop stop-color="#F7DD43"/>
<stop offset="1" stop-color="#F7DD43" stop-opacity="0"/>
</linearGradient>
<linearGradient id="paint88_linear_175_1901" x1="938.5" y1="-57" x2="938.5" y2="241.818" gradientUnits="userSpaceOnUse">
<stop stop-color="#F7DD43"/>
<stop offset="1" stop-color="#F7DD43" stop-opacity="0"/>
</linearGradient>
<linearGradient id="paint89_linear_175_1901" x1="938.5" y1="-57" x2="938.5" y2="241.818" gradientUnits="userSpaceOnUse">
<stop stop-color="#F7DD43"/>
<stop offset="1" stop-color="#F7DD43" stop-opacity="0"/>
</linearGradient>
<linearGradient id="paint90_linear_175_1901" x1="938.5" y1="-57" x2="938.5" y2="241.818" gradientUnits="userSpaceOnUse">
<stop stop-color="#F7DD43"/>
<stop offset="1" stop-color="#F7DD43" stop-opacity="0"/>
</linearGradient>
<linearGradient id="paint91_linear_175_1901" x1="938.5" y1="-57" x2="938.5" y2="241.818" gradientUnits="userSpaceOnUse">
<stop stop-color="#F7DD43"/>
<stop offset="1" stop-color="#F7DD43" stop-opacity="0"/>
</linearGradient>
<linearGradient id="paint92_linear_175_1901" x1="938.5" y1="-57" x2="938.5" y2="241.818" gradientUnits="userSpaceOnUse">
<stop stop-color="#F7DD43"/>
<stop offset="1" stop-color="#F7DD43" stop-opacity="0"/>
</linearGradient>
<linearGradient id="paint93_linear_175_1901" x1="938.5" y1="-57" x2="938.5" y2="241.818" gradientUnits="userSpaceOnUse">
<stop stop-color="#F7DD43"/>
<stop offset="1" stop-color="#F7DD43" stop-opacity="0"/>
</linearGradient>
<clipPath id="clip0_175_1901">
<rect width="1024" height="753" fill="white"/>
</clipPath>
</defs>
</svg>

